<svg xmlns="http://www.w3.org/2000/svg" version="1.1" xmlns:xlink="http://www.w3.org/1999/xlink" width="1000" height="1000"><g clip-path="url(#SvgjsClipPath1246)"><rect width="1000" height="1000" fill="#ffffff"></rect><g transform="matrix(5.681818181818182,0,0,5.681818181818182,0,17.04545454545456)"><svg xmlns="http://www.w3.org/2000/svg" version="1.1" xmlns:xlink="http://www.w3.org/1999/xlink" width="176" height="170"><svg xmlns="http://www.w3.org/2000/svg" xmlns:xlink="http://www.w3.org/1999/xlink" id="Layer_1" x="0px" y="0px" viewBox="0 0 176 170" style="enable-background:new 0 0 176 170;" xml:space="preserve"> <style type="text/css"> .st0{clip-path:url(#SVGID_00000034771928913476975590000007291206316674312076_);} .st1{fill:#000000;} </style> <g> <defs> <rect id="SVGID_1_" width="176" height="170"></rect> <clipPath id="SvgjsClipPath1246"><rect width="1000" height="1000" x="0" y="0" rx="500" ry="500"></rect></clipPath></defs> <clipPath id="SVGID_00000041290125970843985760000008985507181077273783_"> <use xlink:href="#SVGID_1_" style="overflow:visible;"></use> </clipPath> <g style="clip-path:url(#SVGID_00000041290125970843985760000008985507181077273783_);"> <path class="st1" d="M88,9.2C44.7,9.2,9.5,43.2,9.5,85c0,41.8,35.2,75.8,78.5,75.8c43.3,0,78.5-34,78.5-75.8 C166.5,43.2,131.3,9.2,88,9.2z M88,170c-48.5,0-88-38.1-88-85S39.5,0,88,0c48.5,0,88,38.1,88,85S136.5,170,88,170z"></path> <path class="st1" d="M101.1,57.6H67.3l-0.8,15.3c1.3-0.4,2.9-0.6,4.7-0.8c1.8-0.1,3.5-0.2,5-0.2c4,0,7.8,0.6,11.3,1.7 c3.5,1.1,6.5,2.8,9.1,4.9c2.6,2.1,4.6,4.8,6,7.9c1.4,3.1,2.2,8.7,2.2,12.8c0,4.4-0.8,8.4-2.4,11.9c-1.6,3.5-3.8,6.5-6.5,8.9 c-2.7,2.4-5.9,4.2-9.6,5.5c-3.7,1.3-7.6,1.9-11.7,1.9c-6.9,0-12.8-1.6-17.5-4.7c-4.7-3.1-7.7-8.9-9.9-14.3l12.2-2.5 c1.2,3.2,3.1,5.2,5.8,7.1c2.7,1.9,6,2.9,9.7,2.9c2.1,0,4.1-0.3,6-1c1.9-0.7,3.5-1.7,4.9-2.9c1.4-1.3,3-2.9,3.8-4.8 c0.8-1.9,1.2-4.1,1.2-6.5c0-3.1-0.5-7.6-1.6-9.7c-1.1-2-3-3.7-4.8-4.9c-1.7-1.2-3.7-2.1-5.9-2.6c-2.2-0.5-4.4-0.7-6.7-0.7 c-1.6,0-3.2,0.1-5,0.3c-1.8,0.2-3.5,0.5-5.1,1c-1.7,0.4-3.3,0.9-4.9,1.4c-1.6,0.5-3,1.1-4.3,1.7L54,45.5h47L101.1,57.6L101.1,57.6 z"></path> <path class="st1" d="M118.1,65.8c0,0-0.8-0.1-9.7,0.6v3.5c0,0,5.4,10.6,5.4,18.2s0.6,28.9,0.6,28.9s-0.1,2.1,0.4,3.7 c0.3,1.1,1.9,3,2.5,4.2c0.3,0.5,1,0.5,1.3,0c0.7-1.2,2.2-3.1,2.5-4.2c0.5-1.7,0.4-3.7,0.4-3.7s0.6-21.4,0.6-28.9 s5.4-18.2,5.4-18.2v-3.5C118.9,65.7,118.1,65.8,118.1,65.8"></path> <path class="st1" d="M125.8,52.7c0,4.1-3.4,7.4-7.7,7.4s-7.7-3.3-7.7-7.4c0-4.1,3.4-7.4,7.7-7.4S125.8,48.6,125.8,52.7z"></path> </g> </g> </svg></svg></g></g></svg>